#!OML:ASF H:\Terrain\Patient Classification 1\Terrain2\Thursday\justin.ASF
:FULLY-SPECIFIED
:DEGREES
3907
root 14.6411 23.0479 -0.2788 186.547 260.238 -535.182
lowerback 21.5076 -1.74264 4.64794
upperback 4.25239 -1.23197 3.7689
thorax -7.36755 -0.788158 1.80042
lowerneck -17.3246 -3.02371 -10.3827
upperneck 32.0444 -3.45091 4.79364
head 14.1272 -2.32851 3.09464
rclavicle 2.14687e-014 1.74931e-014
rhumerus -25.9433 -3.96131 -71.9361
rradius 44.4139
rwrist -15.0224
rhand -22.6398 12.7642
rfingers 7.12502
rthumb 3.79096 -17.1818
lclavicle 2.14687e-014 1.74931e-014
lhumerus -32.0628 -2.07496 89.0493
lradius 41.4127
lwrist 7.87879
lhand -18.3553 21.3009
lfingers 7.12502
lthumb 7.9274 51.1322
rfemur -71.2309 -16.1372 32.7932
rtibia 91.8492
rfoot -29.9526 1.45754
rtoes 16.9739
lfemur -11.2741 -2.34497 -17.1009
ltibia 45.0303
lfoot 16.7633 -2.84613
ltoes -3.28306
3908
root 14.5579 23.1976 -0.263192 186.931 260.589 -535.709
lowerback 21.3757 -1.66871 5.01359
upperback 4.24238 -1.06679 3.7593
thorax -7.31321 -0.716884 1.53291
lowerneck -17.3257 -3.14451 -10.4636
upperneck 32.1023 -3.6068 4.78691
head 14.1719 -2.40843 3.07979
rclavicle 1.11319e-014 -1.43125e-014
rhumerus -25.7795 -4.8522 -71.8009
rradius 44.2902
rwrist -15.2365
rhand -23.0367 12.7214
rfingers 7.12502
rthumb 3.40764 -17.2311
lclavicle 1.11319e-014 -1.43125e-014
lhumerus -32.0141 -2.00316 89.0256
lradius 41.2698
lwrist 7.60532
lhand -18.395 21.4255
lfingers 7.12502
lthumb 7.88914 51.2583
rfemur -69.6233 -15.908 32.423
rtibia 90.4857
rfoot -29.761 2.68737
rtoes 20.718
lfemur -12.0239 -1.52136 -17.0734
ltibia 47.6531
lfoot 15.6474 -3.91948
ltoes 2.64513
3909
root 14.4794 23.3402 -0.251134 187.922 260.916 -536.914
lowerback 21.3664 -1.64971 5.31211
upperback 4.1984 -0.968738 3.88229
thorax -7.35668 -0.677925 1.47262
lowerneck -17.2211 -3.14316 -10.6489
upperneck 32.1944 -3.54755 4.71556
head 14.1886 -2.42274 3.09442
rclavicle -6.36111e-015 -6.36111e-015
rhumerus -25.7877 -5.47214 -71.6892
rradius 44.4178
rwrist -15.3887
rhand -23.3411 12.4914
rfingers 7.12502
rthumb 3.11366 -17.4656
lclavicle -6.36111e-015 -6.36111e-015
lhumerus -32.0804 -1.92239 89.0793
lradius 41.1739
lwrist 7.57474
lhand -18.4871 21.4324
lfingers 7.12502
lthumb 7.8002 51.2685
rfemur -68.0764 -15.9656 32.405
rtibia 89.0863
rfoot -29.5534 3.49803
rtoes 22.1241
lfemur -12.725 -0.680424 -16.8528
ltibia 50.2727
lfoot 14.646 -4.35078
ltoes 4.33287
3910
root 14.4045 23.4748 -0.239532 187.098 261.344 -536.26
lowerback 21.3434 -1.55025 5.30893
upperback 4.15486 -0.837856 3.89067
thorax -7.39037 -0.615583 1.44822
lowerneck -17.1464 -3.08599 -10.7528
upperneck 32.356 -3.45835 4.71201
head 14.2379 -2.40772 3.12951
rclavicle 7.95139e-015 3.97569e-014
rhumerus -25.7405 -6.07457 -71.6418
rradius 44.4522
rwrist -15.9327
rhand -23.7922 12.2724
rfingers 7.12502
rthumb 2.67808 -17.6905
lclavicle 7.95139e-015 3.97569e-014
lhumerus -32.1582 -2.3431 89.2115
lradius 41.1106
lwrist 7.86842
lhand -19.2646 21.3424
lfingers 7.12502
lthumb 7.04975 51.2049
rfemur -66.6971 -16.1213 32.1625
rtibia 87.7452
rfoot -29.3854 4.02888
rtoes 21.9718
lfemur -13.4185 0.0655458 -16.9779
ltibia 52.7676
lfoot 13.8907 -4.25428
ltoes 4.48658
3911
root 14.3256 23.6151 -0.237189 186.023 261.78 -535.394
lowerback 21.2931 -1.40672 5.19204
upperback 4.14942 -0.683256 3.84456
thorax -7.3673 -0.538687 1.42019
lowerneck -17.0633 -3.031 -10.6579
upperneck 32.5231 -3.42187 4.65673
head 14.2863 -2.398 3.09987
rclavicle 7.95139e-015 5.08889e-014
rhumerus -25.4914 -6.44516 -71.6587
rradius 44.2926
rwrist -16.9239
rhand -24.3969 12.1347
rfingers 7.12502
rthumb 2.09403 -17.8348
lclavicle 7.95139e-015 5.08889e-014
lhumerus -32.2527 -2.79535 89.2619
lradius 41.1224
lwrist 7.9991
lhand -20.259 21.5412
lfingers 7.12502
lthumb 6.08972 51.4337
rfemur -65.1396 -15.9604 31.768
rtibia 86.3243
rfoot -29.2402 4.25163
rtoes 21.6733
lfemur -13.981 0.783361 -17.0942
ltibia 55.1329
lfoot 13.2667 -3.9631
ltoes 4.99976
